<?xml version="1.0" encoding="us-ascii" standalone="no"?><svg xmlns="http://www.w3.org/2000/svg" xmlns:xlink="http://www.w3.org/1999/xlink" contentStyleType="text/css" height="364px" preserveAspectRatio="none" style="width:150px;height:364px;background:#EEEBDC;" version="1.1" viewBox="0 0 150 364" width="150px" zoomAndPan="magnify"><defs/><g><rect fill="#EEEBDC" height="364" style="stroke:none;stroke-width:1.0;" width="150" x="0" y="0"/><polygon fill="#222222" points="85.0552,22.4324,83.5894,24.4353,81.8556,27.3688,79.376,29.3458,76.7703,30.4269,74.6927,30.5207,72.0224,29.1687,69.5029,28.2854,67.5905,26.492,66.5873,24.4389,65.9924,22.8041,65.4096,20.6688,64.4636,18.8313,65.1906,17.0373,65.8275,15.072,68.2175,13.5177,69.8991,11.501,71.9804,10.8313,74.4547,10.2546,77.6276,10.5972,79.3655,11.4168,81.3861,11.7884,83.8429,14.3054,84.6993,16.9627,85.0714,18.7758,84.65,21.7635" style="stroke:#222222;stroke-width:1.0;"/><polygon fill="#F1F1F1" points="23.5,50,23.5,50.2102,33.8,49.5857,44.1,50.1933,54.4,50.3997,64.7,49.2866,75,49.9223,85.3,49.5735,95.6,49.6165,105.9,49.9318,116.2,49.3086,126.5,50,126.5706,50.1705,128.1874,50.5381,130.0103,51.4036,131.8584,52.3297,133.5601,52.9025,135.3388,53.6612,135.3598,53.6699,136.0612,55.4249,136.8583,57.2195,137.6092,58.995,138.4481,60.8069,139,62.5,139.2237,62.5,139.2264,64.7777,139.0849,67.0555,139.1545,69.3332,139.2341,71.6109,139,73.8887,138.7779,73.7967,138.4767,75.743,137.4442,77.3864,136.9677,79.2601,135.9186,80.8966,135.3388,82.7275,135.3301,82.7064,133.6657,83.6881,131.7971,84.177,130.049,84.9566,128.311,85.7607,126.5,86.3887,126.5,86.8049,116.2,86.3848,105.9,86.6759,95.6,85.8163,85.3,86.6731,75,86.9369,64.7,86.8332,54.4,87.0017,44.1,85.9056,33.8,85.7365,23.5,86.3887,23.4207,86.1973,21.7247,85.6383,19.9394,84.8637,18.2836,84.4018,16.4067,83.4059,14.6612,82.7275,14.5555,82.6837,13.9992,80.9889,12.9913,79.1069,12.3046,77.358,11.9321,75.7392,11,73.8887,11.1452,73.8887,11.2448,71.6109,10.8927,69.3332,11.1064,67.0555,11.1968,64.7777,11,62.5,10.8545,62.4397,11.7027,60.72,12.5033,58.9805,13.3974,57.2798,13.9276,55.4284,14.6612,53.6612,14.7202,53.8036,16.3583,52.7584,18.1103,51.9881,20.0287,51.6196,21.6408,50.5114,23.5,50" style="stroke:#181818;stroke-width:0.5;"/><text fill="#000000" font-family="sans-serif" font-size="12" lengthAdjust="spacing" textLength="108" x="21" y="73.752">&#20195;&#30721;&#23457;&#26597;&#21644;&#25910;&#38598;&#20449;&#24687;</text><polygon fill="#F1F1F1" points="41.5,106.3887,41.5,106.5989,51.0714,105.9744,60.6429,106.582,70.2143,106.7884,79.7857,105.6753,89.3571,106.311,98.9286,105.9622,108.5,106.3887,108.4511,106.2706,110.2591,107.0999,111.9473,107.6402,113.8739,108.7559,115.4907,109.1235,117.3388,110.0498,117.2779,110.0246,118.2041,111.8727,118.7769,113.5744,119.5565,115.3618,120.2579,117.1168,121,118.8887,121.0595,118.8887,121.0797,121.1664,121.1952,123.4441,121.2237,125.7219,121.2264,127.9996,121,130.2773,121.0784,130.3098,120.4105,132.1042,119.7518,133.9025,118.5812,135.4886,118.28,137.435,117.3388,139.1162,117.301,139.0249,115.6392,140.0128,113.7402,140.4282,112.0268,141.2918,110.3624,142.2735,108.5,142.7773,108.5,142.7286,98.9286,142.8826,89.3571,143.116,79.7857,143.1936,70.2143,142.7734,60.6429,143.0646,51.0714,142.2049,41.5,142.7773,41.5363,142.8649,39.8022,142.2139,38.0212,141.4498,36.2749,140.7694,34.3673,139.6996,32.6612,139.1162,32.4603,139.033,31.7376,137.2691,31.1786,135.5731,30.4039,133.7878,29.9421,132.132,29,130.2773,28.9418,130.2773,28.8856,127.9996,29.0761,125.7219,28.7777,123.4441,28.827,121.1664,29,118.8887,29.1999,118.9715,29.8664,117.1765,30.6907,115.4468,31.0976,113.5443,32.0272,111.8583,32.6612,110.0498,32.7365,110.2317,34.3687,109.1721,36.1845,108.5559,37.9805,107.8919,39.8154,107.3216,41.5,106.3887" style="stroke:#181818;stroke-width:0.5;"/><text fill="#000000" font-family="sans-serif" font-size="12" lengthAdjust="spacing" textLength="72" x="39" y="130.1406">&#38745;&#24577;&#20195;&#30721;&#20998;&#26512;</text><polygon fill="#F1F1F1" points="41.5,162.7773,41.5,162.9875,51.0714,162.363,60.6429,162.9706,70.2143,163.177,79.7857,162.0639,89.3571,162.6996,98.9286,162.3509,108.5,162.7773,108.4511,162.6592,110.2591,163.4886,111.9473,164.0289,113.8739,165.1445,115.4907,165.5122,117.3388,166.4385,117.2779,166.4133,118.2041,168.2614,118.7769,169.9631,119.5565,171.7505,120.2579,173.5055,121,175.2773,121.0595,175.2773,121.0797,177.5551,121.1952,179.8328,121.2237,182.1105,121.2264,184.3883,121,186.666,121.0784,186.6985,120.4105,188.4929,119.7518,190.2911,118.5812,191.8773,118.28,193.8236,117.3388,195.5049,117.301,195.4135,115.6392,196.4015,113.7402,196.8169,112.0268,197.6805,110.3624,198.6622,108.5,199.166,108.5,199.1173,98.9286,199.2713,89.3571,199.5046,79.7857,199.5822,70.2143,199.1621,60.6429,199.4532,51.0714,198.5936,41.5,199.166,41.5363,199.2536,39.8022,198.6026,38.0212,197.8384,36.2749,197.1581,34.3673,196.0883,32.6612,195.5049,32.4603,195.4217,31.7376,193.6578,31.1786,191.9618,30.4039,190.1765,29.9421,188.5207,29,186.666,28.9418,186.666,28.8856,184.3883,29.0761,182.1105,28.7777,179.8328,28.827,177.5551,29,175.2773,29.1999,175.3601,29.8664,173.5652,30.6907,171.8355,31.0976,169.933,32.0272,168.247,32.6612,166.4385,32.7365,166.6203,34.3687,165.5608,36.1845,164.9445,37.9805,164.2806,39.8154,163.7103,41.5,162.7773" style="stroke:#181818;stroke-width:0.5;"/><text fill="#000000" font-family="sans-serif" font-size="12" lengthAdjust="spacing" textLength="72" x="39" y="186.5293">&#21019;&#24314;&#27169;&#22411;&#35270;&#22270;</text><polygon fill="#F1F1F1" points="41.5,219.166,41.5,219.3762,51.0714,218.7517,60.6429,219.3593,70.2143,219.5657,79.7857,218.4526,89.3571,219.0883,98.9286,218.7395,108.5,219.166,108.4511,219.0479,110.2591,219.8773,111.9473,220.4176,113.8739,221.5332,115.4907,221.9008,117.3388,222.8272,117.2779,222.802,118.2041,224.65,118.7769,226.3518,119.5565,228.1392,120.2579,229.8942,121,231.666,121.0595,231.666,121.0797,233.9438,121.1952,236.2215,121.2237,238.4992,121.2264,240.777,121,243.0547,121.0784,243.0872,120.4105,244.8816,119.7518,246.6798,118.5812,248.266,118.28,250.2123,117.3388,251.8935,117.301,251.8022,115.6392,252.7901,113.7402,253.2055,112.0268,254.0691,110.3624,255.0508,108.5,255.5547,108.5,255.506,98.9286,255.66,89.3571,255.8933,79.7857,255.9709,70.2143,255.5508,60.6429,255.8419,51.0714,254.9823,41.5,255.5547,41.5363,255.6423,39.8022,254.9913,38.0212,254.2271,36.2749,253.5468,34.3673,252.477,32.6612,251.8935,32.4603,251.8103,31.7376,250.0465,31.1786,248.3505,30.4039,246.5652,29.9421,244.9094,29,243.0547,28.9418,243.0547,28.8856,240.777,29.0761,238.4992,28.7777,236.2215,28.827,233.9438,29,231.666,29.1999,231.7488,29.8664,229.9538,30.6907,228.2242,31.0976,226.3217,32.0272,224.6357,32.6612,222.8272,32.7365,223.009,34.3687,221.9495,36.1845,221.3332,37.9805,220.6693,39.8154,220.099,41.5,219.166" style="stroke:#181818;stroke-width:0.5;"/><text fill="#000000" font-family="sans-serif" font-size="12" lengthAdjust="spacing" textLength="72" x="39" y="242.918">&#21019;&#24314;&#35774;&#35745;&#25991;&#26723;</text><polygon fill="#F1F1F1" points="47.5,275.5547,47.5,275.7649,56.6667,275.1404,65.8333,275.748,75,275.9544,84.1667,274.8413,93.3333,275.477,102.5,275.5547,102.4456,275.4233,104.2188,276.1688,106.0268,276.9982,107.7151,277.5385,109.6417,278.6541,111.3388,279.2159,111.1447,279.1355,112.0102,280.9584,112.9363,282.8065,113.5091,284.5082,114.2888,286.2956,115,288.0547,114.9894,288.0547,115.0595,290.3324,115.0797,292.6102,115.1952,294.8879,115.2237,297.1656,115,299.4434,115.2092,299.53,114.3462,301.2436,113.6783,303.038,113.0196,304.8362,111.849,306.4224,111.3388,308.2822,111.4254,308.4911,109.5332,308.9231,107.8714,309.9111,105.9724,310.3264,104.259,311.19,102.5,311.9434,102.5,312.685,93.3333,311.8946,84.1667,312.0487,75,312.282,65.8333,312.3596,56.6667,311.9395,47.5,311.9434,47.5366,312.0318,45.6592,311.0348,44.0007,310.5665,42.2666,309.9155,40.4856,309.1513,38.6612,308.2822,38.85,308.3604,37.7802,306.4528,36.9959,304.6635,36.2731,302.8996,35.7141,301.2036,35,299.4434,34.9345,299.4434,35.2271,297.1656,34.9418,294.8879,34.8856,292.6102,35.0761,290.3324,35,288.0547,34.7946,287.9696,35.5724,286.2207,36.6643,284.6019,37.3309,282.807,38.1551,281.0773,38.6612,279.2159,38.6201,279.1168,40.4696,278.5819,42.272,277.9332,43.9042,276.8737,45.72,276.2574,47.5,275.5547" style="stroke:#181818;stroke-width:0.5;"/><text fill="#000000" font-family="sans-serif" font-size="12" lengthAdjust="spacing" textLength="60" x="45" y="299.3066">&#39564;&#35777;&#21644;&#20462;&#27491;</text><polygon fill="none" points="86.0608,345.619,84.4484,347.8222,82.5412,351.0491,79.8136,353.2238,76.9474,354.413,74.662,354.5162,71.7247,353.0289,68.9532,352.0573,66.8495,350.0845,65.7461,347.8261,65.0917,346.0279,64.4506,343.6791,63.41,341.6578,64.2096,339.6844,64.9102,337.5226,67.5393,335.8128,69.389,333.5945,71.6784,332.8578,74.4001,332.2234,77.8904,332.6003,79.8021,333.5019,82.0247,333.9105,84.7272,336.6793,85.6693,339.6023,86.0786,341.5967,85.615,344.8832" style="stroke:#222222;stroke-width:1.0;"/><polygon fill="#222222" points="81.0331,344.4028,80.1536,345.6045,79.1134,347.3647,77.6256,348.5508,76.0622,349.1995,74.8156,349.2558,73.2135,348.4446,71.7017,347.9146,70.5543,346.8385,69.9524,345.6067,69.5955,344.6258,69.2458,343.3447,68.6782,342.2422,69.1143,341.1657,69.4965,339.9866,70.9305,339.054,71.9394,337.844,73.1882,337.4421,74.6728,337.0961,76.5766,337.3017,77.6193,337.7935,78.8317,338.0164,80.3057,339.5266,80.8196,341.121,81.0429,342.2088,80.79,344.0015" style="stroke:#111111;stroke-width:1.0;"/><path d="M75,30 L75.0934,30 L74.8159,34 L75.0859,38 L75.1776,42 L74.6829,46 L75,50 " fill="#181818" style="stroke:#181818;stroke-width:1.0;"/><polygon fill="#181818" points="71,40,71.065,40.026,71.6718,41.9487,72.6598,44.0239,73.5237,46.0495,73.9792,47.9117,75,50,74.9759,49.9904,75.668,47.9472,76.4813,45.9525,77.3789,43.9916,77.986,41.9144,79,40,79.1305,40.1305,78.0514,40.6514,77.3534,41.5534,76.7018,42.5018,75.7798,43.1798,75,44,75.0161,44.0161,74.1925,43.1925,73.4421,42.4421,72.6564,41.6564,71.938,40.938,71,40" style="stroke:#181818;stroke-width:1.0;"/><path d="M75,86.3887 L75.0934,86.3887 L74.8159,90.3887 L75.0859,94.3887 L75.1776,98.3887 L74.6829,102.3887 L75,106.3887 " fill="#181818" style="stroke:#181818;stroke-width:1.0;"/><polygon fill="#181818" points="71,96.3887,71.065,96.4147,71.6718,98.3374,72.6598,100.4126,73.5237,102.4382,73.9792,104.3004,75,106.3887,74.9759,106.3791,75.668,104.3359,76.4813,102.3412,77.3789,100.3802,77.986,98.3031,79,96.3887,79.1305,96.5192,78.0514,97.0401,77.3534,97.9421,76.7018,98.8905,75.7798,99.5685,75,100.3887,75.0161,100.4048,74.1925,99.5811,73.4421,98.8308,72.6564,98.045,71.938,97.3267,71,96.3887" style="stroke:#181818;stroke-width:1.0;"/><path d="M75,142.7773 L75.0934,142.7773 L74.8159,146.7773 L75.0859,150.7773 L75.1776,154.7773 L74.6829,158.7773 L75,162.7773 " fill="#181818" style="stroke:#181818;stroke-width:1.0;"/><polygon fill="#181818" points="71,152.7773,71.065,152.8034,71.6718,154.7261,72.6598,156.8013,73.5237,158.8268,73.9792,160.689,75,162.7773,74.9759,162.7677,75.668,160.7245,76.4813,158.7299,77.3789,156.7689,77.986,154.6918,79,152.7773,79.1305,152.9078,78.0514,153.4288,77.3534,154.3307,76.7018,155.2792,75.7798,155.9571,75,156.7773,75.0161,156.7934,74.1925,155.9698,73.4421,155.2194,72.6564,154.4337,71.938,153.7154,71,152.7773" style="stroke:#181818;stroke-width:1.0;"/><path d="M75,199.166 L75.0934,199.166 L74.8159,203.166 L75.0859,207.166 L75.1776,211.166 L74.6829,215.166 L75,219.166 " fill="#181818" style="stroke:#181818;stroke-width:1.0;"/><polygon fill="#181818" points="71,209.166,71.065,209.192,71.6718,211.1147,72.6598,213.1899,73.5237,215.2155,73.9792,217.0777,75,219.166,74.9759,219.1564,75.668,217.1132,76.4813,215.1185,77.3789,213.1576,77.986,211.0804,79,209.166,79.1305,209.2965,78.0514,209.8175,77.3534,210.7194,76.7018,211.6678,75.7798,212.3458,75,213.166,75.0161,213.1821,74.1925,212.3585,73.4421,211.6081,72.6564,210.8224,71.938,210.1041,71,209.166" style="stroke:#181818;stroke-width:1.0;"/><path d="M75,255.5547 L75.0934,255.5547 L74.8159,259.5547 L75.0859,263.5547 L75.1776,267.5547 L74.6829,271.5547 L75,275.5547 " fill="#181818" style="stroke:#181818;stroke-width:1.0;"/><polygon fill="#181818" points="71,265.5547,71.065,265.5807,71.6718,267.5034,72.6598,269.5786,73.5237,271.6042,73.9792,273.4664,75,275.5547,74.9759,275.5451,75.668,273.5019,76.4813,271.5072,77.3789,269.5462,77.986,267.4691,79,265.5547,79.1305,265.6852,78.0514,266.2061,77.3534,267.1081,76.7018,268.0565,75.7798,268.7345,75,269.5547,75.0161,269.5708,74.1925,268.7472,73.4421,267.9968,72.6564,267.2111,71.938,266.4927,71,265.5547" style="stroke:#181818;stroke-width:1.0;"/><path d="M75,311.9434 L75.0934,311.9434 L74.8159,315.9434 L75.0859,319.9434 L75.1776,323.9434 L74.6829,327.9434 L75,331.9434 " fill="#181818" style="stroke:#181818;stroke-width:1.0;"/><polygon fill="#181818" points="71,321.9434,71.065,321.9694,71.6718,323.8921,72.6598,325.9673,73.5237,327.9928,73.9792,329.855,75,331.9434,74.9759,331.9337,75.668,329.8906,76.4813,327.8959,77.3789,325.9349,77.986,323.8578,79,321.9434,79.1305,322.0739,78.0514,322.5948,77.3534,323.4967,76.7018,324.4452,75.7798,325.1231,75,325.9434,75.0161,325.9594,74.1925,325.1358,73.4421,324.3854,72.6564,323.5997,71.938,322.8814,71,321.9434" style="stroke:#181818;stroke-width:1.0;"/><!--SRC=[JOnD2e9004RtSug1Rc6xoeDCQIhQJCnCkCsD2Rc8Y22a7uaeWdJN8i4kuqnsYoO8QVk-zptcEdYCA1h1FXgu5YKJR7I9HoXiwRhUwNK1QmmROSEd3kScXfnEpB-9sSWWleCjE4GUCm5W754EjAeulWw1o5AvFubbB5VtTn9MprG6UHjex-r6JeEV4uLojr1GH8ae7lAIYjsyFeSYAHjOPsMjKkkPJ8_V-pMkyq1bgsScRuemJiOV]--></g></svg>